<svg width="1200" height="630" viewBox="0 0 1200 630" fill="none" xmlns="http://www.w3.org/2000/svg">
  <rect width="1200" height="630" fill="#f5f0eb"/>
  <rect x="70" y="64" width="1060" height="502" rx="34" fill="#fffdf9" stroke="#ece7e1" stroke-width="2"/>

  <circle cx="600" cy="210" r="66" fill="#fef3e2" stroke="#ddd6cd" stroke-width="2"/>
  <path d="M568 171v52c0 11-9 20-20 20h-7" stroke="#b45309" stroke-width="8" stroke-linecap="round" stroke-linejoin="round"/>
  <path d="M548 171v40" stroke="#b45309" stroke-width="8" stroke-linecap="round"/>
  <path d="M531 171v40" stroke="#b45309" stroke-width="8" stroke-linecap="round"/>
  <path d="M643 171c-20 0-33 25-33 63 0 21 13 28 33 28s33-7 33-28c0-38-13-63-33-63Z" stroke="#0d9488" stroke-width="8" stroke-linecap="round" stroke-linejoin="round"/>
  <path d="M643 262v58" stroke="#0d9488" stroke-width="8" stroke-linecap="round"/>

  <text x="600" y="380" text-anchor="middle" fill="#1f1d1a" font-family="-apple-system, BlinkMacSystemFont, 'Segoe UI', sans-serif" font-size="78" font-weight="800">Just Pick Food</text>
  <text x="600" y="438" text-anchor="middle" fill="#5c5750" font-family="-apple-system, BlinkMacSystemFont, 'Segoe UI', sans-serif" font-size="32" font-weight="500">Add places together. We pick one.</text>

  <rect x="481" y="484" width="238" height="46" rx="23" fill="#ffffff" stroke="#ddd6cd" stroke-width="2"/>
  <text x="600" y="517" text-anchor="middle" fill="#5c5750" font-family="-apple-system, BlinkMacSystemFont, 'Segoe UI', sans-serif" font-size="21" font-weight="700">justpickfood.com</text>
</svg>
